Coordinates
version=1
nRows=4
nColumns=63
inDegrees=yes

Units are S.I. units (second, meters, Newtons, ...)
If the header above contains a line with 'inDegrees', this indicates whether rotational values are in degrees (yes) or radians (no).

endheader
time	pelvis_tilt	pelvis_list	pelvis_rotation	pelvis_tx	pelvis_ty	pelvis_tz	hip_flexion_r	hip_adduction_r	hip_rotation_r	knee_angle_r	knee_angle_r_beta	ankle_angle_r	subtalar_angle_r	mtp_angle_r	hip_flexion_l	hip_adduction_l	hip_rotation_l	knee_angle_l	knee_angle_l_beta	ankle_angle_l	subtalar_angle_l	mtp_angle_l	L5_S1_Flex_Ext	L5_S1_Lat_Bending	L5_S1_axial_rotation	L4_L5_Flex_Ext	L4_L5_Lat_Bending	L4_L5_axial_rotation	L3_L4_Flex_Ext	L3_L4_Lat_Bending	L3_L4_axial_rotation	L2_L3_Flex_Ext	L2_L3_Lat_Bending	L2_L3_axial_rotation	L1_L2_Flex_Ext	L1_L2_Lat_Bending	L1_L2_axial_rotation	L1_T12_Flex_Ext	L1_T12_Lat_Bending	L1_T12_axial_rotation	Abs_r3	Abs_r2	Abs_r1	Abs_t1	Abs_t2	neck_flexion	neck_bending	neck_rotation	arm_flex_r	arm_add_r	arm_rot_r	elbow_flex_r	pro_sup_r	wrist_flex_r	wrist_dev_r	arm_flex_l	arm_add_l	arm_rot_l	elbow_flex_l	pro_sup_l	wrist_flex_l	wrist_dev_l
      0.00000000	      4.50354441	     -5.64368327	     82.20986115	      0.48919789	      0.66922688	      0.62084231	     -3.15060229	      2.03235585	     12.51101897	      1.40487040	      0.02451961	     17.01353845	     -9.75037270	      0.00000000	     -0.05258710	     -2.10642421	    -10.73084319	     11.94926998	      0.20855410	     25.96992157	     -4.28096703	      0.00000000	     -0.03965231	      0.09582046	      0.64422565	     -0.07363831	      0.12744122	      0.68448976	     -0.06514479	      0.23297787	      0.68448976	     -0.04531863	      0.23297787	      0.56369745	     -0.03682114	      0.19539709	      0.52343334	     -0.02265733	      0.14842590	      0.48316924	     -0.28323252	      1.08394024	      3.58298982	      0.00000000	      0.00000000	     26.82282998	     -1.63301911	      5.76322986	     17.85673777	    -14.83917551	     79.44238122	     50.95990531	     89.06066895	     -0.78952327	     -5.60554829	     14.80141393	    -11.07335078	     69.95077415	     50.76699571	     85.89325226	     14.95207498	     17.19623554
      0.01886792	      4.22893985	     -5.79655918	     82.17291883	      0.48968906	      0.66875152	      0.62078283	     -2.94784091	      1.79282433	     12.83812294	      1.33613154	      0.02331989	     16.55431011	    -10.49940886	      0.00000000	      0.04424109	     -1.85715252	    -10.95695952	     12.06087718	      0.21050202	     25.22348972	     -3.83489705	      0.00000000	     -0.02203782	      0.07780398	      0.61893792	     -0.04092644	      0.10347930	      0.65762154	     -0.03620594	      0.18917261	      0.65762154	     -0.02518703	      0.18917261	      0.54157068	     -0.02046432	      0.15865788	      0.50288706	     -0.01259241	      0.12051837	      0.46420344	     -0.15741396	      0.88013422	      3.44234703	      0.00000000	      0.00000000	     26.93482006	     -1.82511162	      6.50683364	     17.78150251	    -14.60473404	     78.40255036	     50.67509111	     88.97183923	     -0.77963674	     -5.99135024	     14.25439975	    -11.72941656	     68.58340774	     51.90545513	     85.89598792	     14.16600160	     17.03778454
      0.03773585	      4.08886919	     -5.89036316	     81.93215395	      0.49016435	      0.66833901	      0.62098965	     -2.80657166	      1.67914053	     14.10146268	      1.26313777	      0.02204591	     15.96564957	    -12.26350583	      0.00000000	      0.08251138	     -1.78435335	    -11.95208712	     12.16216865	      0.21226989	     24.92256679	     -2.74236849	      0.00000000	     -0.01674752	      0.06551885	      0.68856093	     -0.03110182	      0.08714007	      0.73159599	     -0.02751451	      0.15930253	      0.73159599	     -0.01914074	      0.15930253	      0.60249081	     -0.01555175	      0.13360604	      0.55945576	     -0.00956953	      0.10148870	      0.51642070	     -0.11962588	      0.74116234	      3.82956933	      0.00000000	      0.00000000	     27.04158726	     -1.84547142	      6.58696178	     16.86913869	    -14.67561176	     75.28315405	     50.88371026	     88.80239235	      1.42135286	     -5.08413605	     13.80209843	    -11.98006272	     67.26643306	     52.70794860	     86.40144092	     14.00406357	     17.58424358
      0.05660377	      3.97267932	     -5.95719416	     81.79084976	      0.49036267	      0.66803144	      0.62142864	     -2.65831560	      1.56860846	     14.25345538	      1.26052864	      0.02200038	     16.12654128	    -12.29295763	      0.00000000	      0.20686720	     -1.70073544	    -12.28636525	     12.35241561	      0.21559032	     24.73222660	     -2.37181458	      0.00000000	     -0.01363227	      0.04867949	      0.82369943	     -0.02531648	      0.06474372	      0.87518065	     -0.02239645	      0.11835932	      0.87518065	     -0.01558032	      0.11835932	      0.72073700	     -0.01265892	      0.09926722	      0.66925579	     -0.00778948	      0.07540453	      0.61777457	     -0.09737392	      0.55067215	      4.58116913	      0.00000000	      0.00000000	     27.06181844	     -2.03736100	      5.92623680	     15.10252854	    -14.85804344	     70.75195901	     51.27454458	     88.53976282	      3.25258261	     -4.20027611	     13.93555892	    -12.01443496	     67.34437396	     53.01677893	     86.30311826	     13.63287689	     17.55316783
